<svg width="12" height="4" viewBox="0 0 12 4" fill="none" xmlns="http://www.w3.org/2000/svg">
<path d="M5.92555 0.883081L5.56273 5.88894e-05L5.48903 0.0227783L5.13048 0.883081C5.09505 0.908635 4.46298 0.552299 4.36094 0.50829C2.97348 -0.0936446 1.43439 -0.137654 0.00300157 0.330833C-0.00550172 0.428789 0.00158505 0.39046 0.0568564 0.403236C1.47265 0.732597 2.80059 1.19966 4.08317 1.89388C4.283 2.00177 4.76485 2.24595 4.91224 2.37514C4.96467 2.42057 4.97459 2.44614 4.99727 2.51002C5.08655 2.75846 5.10781 3.07504 5.20985 3.35897C5.28638 3.5705 5.39975 3.77067 5.49187 3.9751L5.56557 3.95238C5.73564 3.65283 5.86177 3.32915 5.95672 2.99695C6.00774 2.82091 6.01057 2.49013 6.14095 2.37514C7.65879 1.4623 9.30984 0.738277 11.0502 0.404658C11.0644 0.309541 11.0417 0.346463 10.9992 0.328008C10.9212 0.292516 10.7837 0.257017 10.6973 0.231464C9.06608 -0.241282 7.38811 0.0710375 5.92413 0.883081H5.92555Z" fill="black"/>
</svg>
