<svg width="54" height="54" viewBox="0 0 54 54" fill="none" xmlns="http://www.w3.org/2000/svg"><style>path{fill:#1A1213}@media (prefers-color-scheme:dark){path{fill:#FBF8F4}}</style>
<path d="M53.6878 26.9086C52.3221 26.0645 50.8377 25.3936 49.2615 24.9336C51.9281 20.5129 53.4665 15.3346 53.4665 9.7884C53.4665 7.14786 53.121 4.58307 52.4625 2.14815C52.4031 1.91007 52.3329 1.66656 52.2573 1.42848C52.0198 1.35814 51.7769 1.28781 51.5394 1.22288C49.1103 0.568155 46.5571 0.216435 43.9175 0.216435C38.3901 0.216435 33.2189 1.75855 28.8087 4.43697C28.3553 2.85697 27.686 1.36897 26.8439 0C26.0018 1.36356 25.3325 2.85697 24.8736 4.43697C20.4635 1.76396 15.2977 0.216435 9.76485 0.216435C7.12526 0.216435 4.57204 0.562744 2.14298 1.22288C1.90547 1.28781 1.66257 1.35814 1.42506 1.42848C1.34949 1.66656 1.28471 1.91007 1.21994 2.14815C0.566788 4.58307 0.21593 7.14786 0.21593 9.7884C0.21593 15.3346 1.74893 20.5129 4.42631 24.9336C2.85011 25.3936 1.36568 26.0645 0 26.9086C1.36028 27.7527 2.85011 28.4237 4.42631 28.8782C1.75433 33.299 0.21593 38.4827 0.21593 44.0235C0.21593 46.6694 0.56139 49.2342 1.21994 51.6637C1.28471 51.9072 1.34949 52.1453 1.42506 52.3834C1.66257 52.4591 1.90547 52.5241 2.14298 52.589C4.57204 53.2437 7.12526 53.5954 9.76485 53.5954C15.2977 53.5954 20.4635 52.0587 24.8736 49.3803C25.3325 50.9603 26.0018 52.4483 26.8439 53.8173C27.686 52.4537 28.3553 50.9603 28.8087 49.3803C33.2189 52.0533 38.3901 53.5954 43.9175 53.5954C46.5571 53.5954 49.1103 53.2491 51.5394 52.589C51.7769 52.5295 52.0198 52.4591 52.2573 52.3834C52.3329 52.1453 52.3977 51.9072 52.4625 51.6637C53.1156 49.2342 53.4665 46.6694 53.4665 44.0235C53.4665 38.4827 51.9335 33.299 49.2615 28.8782C50.8377 28.4237 52.3221 27.7527 53.6878 26.9086ZM51.2587 51.3824C43.4479 49.4669 36.0959 46.3394 29.4133 42.2162C29.1002 39.5216 28.2042 37.0055 26.8439 34.7978C25.4836 37.0001 24.5822 39.5161 24.2745 42.2162C17.5918 46.3394 10.2399 49.4669 2.42907 51.3824C4.33993 43.5527 7.45994 36.183 11.5786 29.4842C14.2667 29.1758 16.7768 28.2722 18.9737 26.9086C16.7768 25.5451 14.2667 24.6415 11.5786 24.333C7.45994 17.6343 4.33993 10.2646 2.42907 2.43493C10.2399 4.3504 17.5972 7.48333 24.2745 11.6065C24.5822 14.3011 25.4836 16.8172 26.8439 19.0249C28.2042 16.8226 29.1002 14.3065 29.4133 11.6065C36.0959 7.48333 43.4479 4.3504 51.2587 2.43493C49.3478 10.27 46.2278 17.6397 42.1146 24.333C39.4264 24.6415 36.9164 25.5451 34.7141 26.9086C36.911 28.2722 39.4211 29.1758 42.1146 29.4842C46.2278 36.183 49.3478 43.5527 51.2587 51.3824Z" fill="black"/>
</svg>
